<svg width="24" height="24" viewBox="0 0 24 24" fill="none" xmlns="http://www.w3.org/2000/svg">
<g id="Icon/bold/filter">
<path id="Vector" d="M3.40011 19.8999L3.40011 17.6999C3.40011 16.8999 3.90011 15.8999 4.40011 15.3999L8.70011 11.5999C9.30011 11.0999 9.70011 10.0999 9.70011 9.2999L9.70011 4.9999C9.70011 4.3999 10.1001 3.5999 10.6001 3.2999L12.0001 2.3999C13.3001 1.5999 15.1001 2.4999 15.1001 4.0999L15.1001 9.3999C15.1001 10.0999 15.5001 10.9999 15.9001 11.4999L16.3701 11.9899C16.6801 12.3199 16.7401 12.8199 16.4901 13.2099L11.3701 21.4299C11.1901 21.7199 10.8701 21.8999 10.5201 21.8999L5.40011 21.8999C4.30011 21.8999 3.40011 20.9999 3.40011 19.8999Z" fill="#6418C3"/>
<path id="Vector_2" d="M13.6501 20.3699L17.2001 14.6799C17.5401 14.1299 18.3201 14.0499 18.7701 14.5199L19.7001 15.4999C20.2001 15.9999 20.6001 16.8999 20.6001 17.4999L20.6001 19.7999C20.6001 20.9999 19.7001 21.8999 18.6001 21.8999L14.5001 21.8999C13.7201 21.8999 13.2401 21.0399 13.6501 20.3699Z" fill="#6418C3"/>
</g>
</svg>
